<svg width="1227" height="1472" viewBox="0 0 1227 1472" fill="none" xmlns="http://www.w3.org/2000/svg">
<path d="M1169.8 686.556C1168.72 685.147 1167.87 683.405 1166.56 682.328C1168.1 672.031 1172.36 662.999 1174.28 652.571C1175.29 647.636 1179.95 612.227 1180.25 607.198C1182.98 569.907 1168.18 543.523 1165.34 536.27C1158.29 518.328 1144.05 501.43 1130.58 486.985C1115.51 470.883 1096.24 460.564 1082.29 444.247C1121.11 431.073 1166.57 396.327 1189.17 362.013C1190.77 359.508 1247.28 271.008 1217.73 261.869C1215.82 261.256 1212.09 260.765 1210.08 260.863C1199.74 261.131 1201.8 264.661 1197.69 267.017C1187.74 272.585 1184.2 276.101 1176.36 283.397C1176.36 283.397 993.718 291.04 967.3 292.451C944.911 293.487 916.383 294.439 896.628 304.33C893.141 303.328 891.822 300.982 889.473 299.587C907.389 274.792 924.604 248.458 940.373 222.114C954.05 199.295 1015.18 125.16 1016.44 123.877C1047.6 91.9554 1065.11 74.3486 1066.25 67.0768C1067.47 57.8243 1059.77 47.5797 1051.13 44.4523C1023.48 34.6584 886.943 101.587 876.169 109.22C811.751 154.685 780.823 195.869 737.084 260.165C727.59 238.823 716.653 189.959 685.834 153.321C639.387 84.216 541.916 -4.09283 521.193 0.782761C517.828 1.60706 516.382 1.59778 513.054 3.51308C493.707 15.8102 492.664 66.3567 492.975 96.9889C493.398 130.894 500.826 165.178 502.611 198.357C450.381 173.202 379.071 143.183 330.606 137.529C312.065 135.451 261.775 129.92 255.1 150.401C254.486 152.311 254.219 155.715 254.093 158.052C253.539 174.632 302.376 211.831 314.734 223.775C318.913 227.764 343.518 248.379 345.212 254.757C345.296 262.37 338.145 260.343 331.069 260.498C286.549 260.613 261.838 269.67 224.954 292.874C212.734 300.497 166.414 330.786 153.465 385.196C152.594 389.064 149.252 403.467 148.568 405.911C140.919 432.419 133.67 428.388 112.857 443.569C108.453 446.791 92.2742 454.256 78.1393 472.307C33.5584 529.252 14.6576 626.141 53.6875 689.745C47.6589 699.812 44.9401 697.101 39.3096 704.144C-6.30098 762.04 -17.3018 855.262 38.1786 910.713C45.6939 918.218 60.2714 924.299 61.1979 925.507C62.8965 927.722 56.2458 934.269 55.9648 936.404C32.5809 973.874 24.0921 1023.26 39.0363 1065.05C43.1443 1076.45 59.7163 1127.87 94.4347 1149.99C99.442 1153.19 110.711 1158.29 111.127 1159.25C112.269 1161.57 106.67 1187.63 106.397 1195.19C104.849 1241.33 119.664 1268.98 134.403 1294.45C146.349 1315.03 182.968 1339.22 221.858 1339.27C225.662 1339.22 229.458 1340.63 233.239 1340.76C236.799 1357.71 245.297 1371.49 254.258 1385.89C260.247 1395.36 263.003 1399.17 270.626 1407.23C303.125 1442.1 357.495 1463.37 404.188 1443.99C407.824 1442.48 413.225 1439.93 416.576 1437.84C424.644 1435.64 431.936 1436.6 439.339 1440.83C452.849 1453.65 523.668 1480.53 566.415 1469.14C606.555 1458.31 647.583 1417.37 655.189 1407.69C657.59 1404.57 661.104 1401.23 664.334 1397.31C686.84 1395.39 706.917 1394.05 724.552 1378.27C725.783 1377.16 727.702 1376.33 728.778 1375.02C748.593 1379.8 766.04 1372.32 783.763 1366.87C816.402 1356.68 829.356 1348.98 854.424 1326.21C881.125 1302.03 901.195 1274.62 904.736 1236.71C907.291 1233.79 911.087 1228.31 913.881 1226.33C918.084 1223.26 983.326 1174.28 991.519 1132.64C993.246 1130.52 994.356 1127.59 996.237 1125.66C1011.07 1122.91 1030.77 1118.98 1043.38 1105.62C1080.07 1067.37 1098.69 1044.11 1110.35 1017.41C1122.33 988.213 1125.72 945.94 1111.91 917.514C1112.88 915.65 1111.89 910.813 1112.92 909.863C1113.35 909.376 1117.65 908.312 1125.29 903.887C1138.42 896.202 1145.18 890.213 1154.52 876.962C1168.31 857.417 1180.6 828.624 1183.48 813.617C1188.93 785.915 1196.89 722.702 1169.27 686.486L1169.8 686.556ZM1053.95 56.0458C1053.9 53.6858 1053.75 52.0376 1053.27 51.6116C1053.58 52.0142 1053.72 53.6624 1053.95 56.0458ZM1158.73 537.029C1157.55 540.494 1157.71 541.964 1158.89 542.662C1157.71 541.964 1157.57 540.316 1158.73 537.029ZM1055.84 297.404C1055.51 299.895 1054.79 301.249 1053.65 301.642C1054.81 301.071 1055.69 299.919 1055.84 297.404ZM921.185 339.057C927.821 338.121 934.233 337.516 940.822 336.935C954.001 335.773 967.264 335.346 980.503 335.097C993.743 334.848 1007.09 335.157 1020.46 335.287C1033.81 335.595 1047 335.702 1060.37 335.832C1073.76 335.785 1086.98 335.714 1100.11 334.908C1119.96 333.9 1139.63 331.599 1159.19 327.295C1148.51 347.973 1131.99 366.254 1112.8 381.469C1093.61 396.683 1071.88 409.21 1050.75 418.557C1040.38 423.165 1029.69 427.37 1018.72 430.995C1007.93 434.643 996.851 437.711 985.558 439.664C974.443 441.641 963.066 442.859 951.699 442.63C940.331 442.401 928.95 440.904 917.578 437.959L1005.31 399.544C984.354 406.199 962.026 408.148 940.091 411.235C932.72 412.257 925.503 413.479 918.441 414.903C911.178 416.481 901.972 419.071 891.985 422.101C861.621 431.501 822.954 444.876 805.068 444.694C799.817 444.727 792.989 437.493 787.702 429.557C783.781 423.611 780.617 417.402 779.485 413.633C779.116 412.317 779.055 411.404 779.149 410.692C779.879 407.892 783.487 403.842 788.636 399.089C793.784 394.336 800.449 389.058 807.469 383.828C814.489 378.597 821.842 373.591 828.165 369.536C834.488 365.481 839.959 362.399 843.062 360.816C849.422 357.852 855.735 355.244 862.203 352.836C881.405 345.77 900.968 341.465 920.698 338.631L921.185 339.057ZM996.51 663.028C995.531 666.338 994.398 669.447 993.064 672.711C990.597 679.084 987.466 685.007 984.026 690.528C976.944 701.724 968.07 711.417 957.32 718.872C943.776 728.313 927.452 734.129 907.955 735.184C904.127 735.404 900.144 735.423 896.007 735.241C892.759 735.176 889.736 734.778 886.891 734.403C881.2 733.654 876.291 732.465 872.14 731.014C867.989 729.563 864.442 727.648 861.475 725.447C859.991 724.347 858.686 723.27 857.404 722.015C852.251 717.174 848.911 710.942 845.663 703.998C844.128 700.538 842.439 696.876 840.774 693.037C839.941 691.117 839.108 689.198 838.121 687.076C836.3 683.036 834.302 678.972 831.794 674.659C830.629 672.515 829.286 670.347 827.766 668.155C820.695 657.269 810.859 644.028 799.67 636.944C805.245 624.826 810.014 613.326 813.694 601.863C824.732 567.475 827.262 534.501 822.159 494.912C826.816 493.896 831.295 492.856 835.797 491.638C848.924 488.116 860.723 483.695 872.643 481.101C880.641 479.438 888.569 478.309 896.997 478.875C905.426 479.441 914.2 481.501 923.784 485.658C934.543 490.513 944.403 496.698 952.878 503.787C967.216 515.81 978.465 530.686 986.612 547.144C989.906 553.732 992.643 560.427 994.978 567.432C998.491 577.85 1000.69 588.638 1001.98 599.487C1002.84 606.661 1003.15 613.942 1002.92 621.153C1002.7 628.364 1002.14 635.35 1001.03 642.444C999.936 649.36 998.312 656.205 996.177 662.803L996.51 663.028ZM1004.03 733.708C1018.35 718.396 1029.15 699.544 1035.82 680.509C1036.22 680.2 1037.11 680.317 1038.13 680.814C1042.41 682.644 1050.98 689.021 1058.15 695.033C1063.53 699.542 1068.22 703.779 1069.63 705.413C1077.31 714.389 1083.59 724.446 1088.15 735.183C1092.88 745.943 1095.92 757.203 1097.67 768.657C1098.65 774.94 1099.08 781.332 1099.15 787.676C1099.86 822.162 1088.57 857.061 1067.31 882.501C1063.68 886.73 1059.69 890.911 1055.6 894.536C1043.09 905.741 1027.88 914.058 1010.52 918.11C1004.73 919.519 998.65 920.349 992.44 920.798C993.751 910.834 994.576 900.444 994.666 890.138C994.755 879.832 994.134 869.432 992.778 859.117C989.864 838.641 983.809 818.657 973.468 801.005C973.028 800.223 972.28 799.039 971.175 797.807C970.071 796.576 969.013 794.989 967.6 793.354C965.569 790.915 963.384 788.274 961.222 785.456C959.06 782.637 956.898 779.818 955.069 777.224C952.645 773.647 950.886 770.519 950.656 768.136C950.441 767.022 950.582 765.954 951.209 765.313C971.576 760.39 989.384 748.796 1003.7 733.483L1004.03 733.708ZM346.463 973.907C287.38 1013.2 234.955 1028.02 184.796 965.123C156.242 929.145 156.68 892.819 172.151 850.868C176.907 838.099 200.782 796.893 213.353 793.478C221.421 791.282 232.413 801.236 241.258 802.762C266.216 806.951 303.628 794.859 326.107 783.517C335.31 815.319 356.325 843.97 385.049 860.782C363.785 897.264 349.059 930.805 346.463 973.907ZM321.035 481.1C323.868 466.449 329.724 452.195 338.022 438.625C342.16 431.929 346.808 425.481 351.965 419.282C359.702 409.982 368.768 401.581 378.428 394.164C381.648 391.691 385.046 389.242 388.397 387.149C395.323 382.63 402.535 378.692 409.831 375.488C432.123 365.57 456.604 361.008 481.075 364.771C493.322 366.564 505.466 370.515 517.306 376.779C526.95 381.85 534.405 388.442 540.095 396.069C545.785 403.697 549.996 412.939 553.379 422.978C544.445 431.758 536.53 441.034 529.458 450.784C525.934 455.569 522.741 460.58 519.704 465.791C504.787 491.161 495.991 519.509 494.692 551.378C474.582 554.343 455.08 559.56 435.901 566.449C416.746 573.16 398.115 581.388 379.815 589.841C351.545 575.079 334.138 556.135 325.463 535.444C319.68 521.65 317.818 506.924 319.181 492.441C319.65 488.883 320.141 485.146 320.633 481.409L321.035 481.1ZM327.708 610.498C334.32 616.617 351.893 620.559 349.739 630.05C348.091 637.074 325.626 656.563 321.337 679.531C314.216 717.15 332.569 734.408 290.093 751.988C254.131 766.805 210.154 765.544 182.405 735.826C113.429 661.947 186.714 522.978 283.377 523.932C277.539 555.928 305.26 589.986 327.684 610.676L327.708 610.498ZM377.791 793.577C367.108 777.147 360.497 757.27 360.532 735.01C360.388 712.727 364.541 693.543 371.946 677.14C375.737 668.95 380.17 661.388 385.421 654.476C390.673 647.565 396.743 641.304 403.3 635.469C419.835 621.173 440.241 610.463 462.607 602.726C471.527 599.556 480.91 596.99 490.448 594.624C495.306 593.454 500.14 592.461 504.975 591.468C509.742 607.481 516.452 622.483 524.973 636.094C536.311 654.42 550.621 670.785 566.789 685.402C570.837 689.012 575.062 692.645 579.311 696.101C577.448 702.01 575.431 707.718 573.212 713.58C571.194 719.288 568.976 725.151 566.958 730.859C562.722 742.429 558.841 754.046 555.649 765.935C547.826 795.135 557.635 798.96 530.078 821.4C488.339 855.368 432.546 847.664 396.424 815.578C389.124 809.187 382.877 801.667 377.435 793.53L377.791 793.577ZM398.965 933.752C399.106 932.684 399.85 931.153 400.641 929.266C402.223 925.492 404.549 920.187 407.433 914.774C413.045 903.746 420.113 891.282 425.153 885.971C426.408 884.688 427.437 883.738 428.373 883.499C431.027 882.581 435.969 882.145 441.955 882.028C450.654 881.906 461.821 882.289 472.477 882.424C476.637 882.428 480.597 882.587 484.401 882.545C491.276 882.545 497.463 882.273 501.717 881.565C514.835 879.49 542.321 864.463 550.778 860.688C551.939 860.117 552.875 859.878 553.254 859.747C554.724 859.578 557.11 862.065 560.245 865.735C563.203 869.383 566.885 874.393 570.343 879.735C573.979 885.101 577.592 890.645 580.942 895.43C584.293 900.215 587.025 904.195 588.902 906.433C603.46 922.287 614.902 924.698 618.818 934.807C619.234 935.767 619.627 936.904 619.843 938.019C620.273 940.248 620.479 942.809 620.436 945.88C620.39 946.236 620.366 946.414 620.343 946.592C620.066 951.443 619.069 957.647 617.103 965.715C613.03 982.919 604.857 1001.03 593.718 1016.94C585.452 1028.89 575.703 1039.73 564.812 1048.25C561.189 1051.04 557.412 1053.62 553.682 1055.84C543.096 1062.05 532.411 1066.26 521.783 1068.66C505.918 1072.36 490.058 1071.91 475.33 1068.34C470.421 1067.15 465.559 1065.6 460.945 1063.55C442.75 1056.09 426.703 1043.29 415.084 1027.1C414.93 1026.9 414.598 1026.68 414.443 1026.48C408.669 1018.11 403.901 1008.98 400.495 999.118C397.089 989.257 395.021 978.848 394.671 967.761C394.321 956.673 395.44 945.416 398.61 933.705L398.965 933.752ZM587.015 1085.75C598.879 1078.08 609.012 1069.82 617.46 1060.61C621.672 1056.1 625.73 1051.38 629.278 1046.42C636.373 1036.49 642.294 1025.87 647.041 1014.55C654.184 997.385 659.001 978.65 662.405 958.282C662.428 958.104 663.009 957.818 663.743 957.734C667.309 956.755 677.371 955.907 689.212 955.293C693.952 955.011 699.049 954.777 704.145 954.543C716.875 954.046 729.759 953.75 738.079 953.759C743.152 953.702 746.555 953.969 747.444 954.086C748.333 954.203 750.458 955.93 752.868 958.239C755.455 960.57 758.483 963.684 761.487 966.976C763.874 969.462 766.082 971.925 768.137 974.186C771.45 977.88 774.122 980.947 775.025 982.333C790.055 1004.22 796.792 1028.64 796.369 1052.48C796.12 1066.75 793.357 1080.86 788.353 1094.14C786.678 1098.63 784.67 1102.89 782.662 1107.15C778.29 1115.63 773.076 1123.63 766.888 1130.78C751.462 1149.02 730.612 1163.11 705.648 1169.97C692.142 1173.62 680.161 1175.3 669.374 1174.79C665.77 1174.67 662.368 1174.41 659.191 1173.81C652.634 1172.76 646.55 1170.88 641.094 1168.35C635.637 1165.82 630.476 1162.43 625.918 1158.57C614.368 1148.72 605.515 1134.89 598.127 1118.17C593.832 1108.19 590.032 1097.19 586.505 1085.5L587.015 1085.75ZM772.735 887C761.952 896.08 749.919 902.28 737.433 906.429C731.391 908.349 725.218 909.89 719.115 910.897C716.71 911.305 714.126 911.689 711.567 911.895C681.404 914.261 650.808 904.805 628.35 885.739C620.695 879.301 613.736 871.688 608.341 863.195C599.619 849.738 594.271 834.01 593.163 816.306C592.906 811.385 592.649 806.464 593.15 801.28C593.638 794.828 595.66 784.957 598.581 773.757C599.242 771.491 599.901 769.224 600.562 766.958C601.835 762.781 603.286 758.628 604.737 754.475C605.032 753.608 605.35 752.564 605.823 751.721C608.927 743.26 612.54 735.047 616.345 728.126C620.375 720.873 624.728 715.291 629.24 712.627C633.171 710.248 651.376 709.385 668.182 708.157C674.949 707.6 681.337 707.173 686.682 706.428C689.265 706.044 691.671 705.637 693.543 705.159C697.464 704.227 701.99 702.831 706.74 701.103C711.49 699.375 716.264 697.469 721.239 695.409C731.011 691.264 740.498 686.539 747.733 682.423C751.463 680.198 754.15 677.656 756.457 675.244C757.534 673.938 758.587 672.809 759.616 671.859C762.729 668.829 765.476 667.199 770.245 669.456C773.305 670.945 777.423 674.021 782.837 679.621C798.64 695.638 809 717.275 814.206 740.949C821.444 773.94 818.553 811.03 805.447 841.888C798.056 859.559 787.319 875.162 773.292 886.892L772.735 887ZM747.34 348.582C751.632 335.209 757.324 322.201 763.325 309.596C766.325 303.293 769.503 297.014 772.658 290.912C783.386 269.878 796.024 249.458 810.547 229.828C817.797 220.103 825.379 210.602 833.472 201.349C845.598 187.558 858.699 174.62 872.571 162.689C891.119 146.847 910.878 132.794 932.112 121.288C947.898 112.686 964.41 105.446 981.599 99.924L903.183 203.644C899.706 208.073 896.561 212.728 893.167 217.893C886.76 228.091 880.389 239.381 874.173 250.872C867.78 262.34 861.363 273.985 854.506 284.849C844.232 301.055 832.924 315.496 819.225 324.735C813.66 328.528 807.384 332.228 800.776 335.703C794.345 339.201 787.583 342.474 780.797 345.925C767.224 352.828 753.629 359.909 742.536 368.586C743.782 361.871 745.383 355.203 747.541 348.428L747.34 348.582ZM738.913 442.867C746.77 449.151 753.574 456.563 759.395 464.569C765.216 472.576 770.007 481.533 773.662 490.883C780.97 509.584 784.062 530.084 782.436 550.686C781.635 560.899 779.566 571.125 776.097 580.986C774.351 586.006 772.451 590.824 770.195 595.596C767.939 600.367 765.327 605.092 762.205 609.569C757.936 615.885 752.98 621.931 747.157 627.681C738.625 636.152 728.432 643.499 717.312 649.638C709.898 653.731 702.2 657.244 694.061 659.974C690.069 661.44 685.946 662.526 681.823 663.613C673.577 665.786 665.27 667.046 657.056 667.594C648.843 668.143 640.546 667.956 632.566 666.725C624.587 665.494 616.702 663.551 609.514 660.433C602.326 657.315 595.255 653.307 588.881 648.124C587.089 646.621 585.189 644.561 582.98 642.098C574.393 631.737 563.056 613.41 554.221 596.681C547.741 584.062 542.767 572.366 541.476 565.68C536.251 538.021 542.95 510.483 557.099 486.822C560.338 481.456 563.731 476.291 567.635 471.375C579.771 456.137 595.005 443.48 611.952 434.306C624.79 427.488 638.46 422.589 652.668 420.477C662.089 419.001 671.725 418.64 681.174 419.702C692.602 420.844 703.085 423.672 712.692 427.651C722.3 431.631 731.009 436.94 738.866 443.223L738.913 442.867ZM540.577 61.0768C558.416 75.3711 575.735 90.8641 592.178 107.509C608.622 124.154 624.036 141.749 637.663 160.558C655.922 185.406 671.209 212.217 681.615 240.376C689.508 261.507 694.748 283.556 696.444 306.406C697.702 321.596 697.467 337.132 695.359 353.146C694.306 361.153 692.897 369.113 691.108 377.204L649.003 375.465C648.578 369.074 647.797 362.635 646.637 356.328C644.672 343.761 641.617 331.231 637.982 318.987C628.817 288.275 615.126 258.96 600.583 230.618C600.671 234.069 603.01 243.789 605.696 255.004C606.95 260.599 608.358 266.396 609.612 271.991C610.865 277.587 611.988 282.803 612.694 287.059C613.232 289.845 613.438 292.406 613.56 294.232C613.442 295.122 613.527 295.857 613.433 296.569C613.363 297.103 613.292 297.636 612.913 297.767C612.286 298.409 611.551 298.493 610.864 298.222C609.974 298.105 609.179 297.276 608.206 296.424C606.259 294.72 604.12 291.723 601.958 288.904C597.681 282.911 593.297 276.361 590.653 275.832C581.959 264.913 574.767 252.201 568.202 238.847C542.345 185.123 533.899 115.95 540.198 61.2079L540.577 61.0768ZM467.377 187.023C452.43 179.626 436.369 172.444 420.014 166.129C436.369 172.444 452.454 179.448 467.377 187.023ZM324.693 225.086C326.223 225.83 326.747 227.347 326.419 229.838C326.771 227.169 326.223 225.83 324.693 225.086ZM337.688 241.82C340.889 242.241 342.976 242.878 343.359 245.462C343.154 242.901 341.09 242.086 337.688 241.82ZM340.065 181.131C358.551 185.012 375.875 189.464 392.704 194.936C398.254 196.753 403.781 198.747 409.284 200.919C431.144 209.407 452.01 219.937 472.989 233.739C486.481 242.574 500.651 253.127 514.502 264.725C531.761 279.305 548.228 295.772 562.327 313.737C570.689 324.432 578.246 335.744 584.31 347.402C592.396 362.948 598.029 379.256 600.344 396.033L566.479 359.175C556.119 344.417 537.783 338.022 519.167 333.762C499.484 329.362 479.627 327.654 468.962 322.087C467.942 321.591 466.458 320.49 465.129 319.591C462.317 317.592 459.196 315.19 455.457 311.983C449.771 307.072 442.981 300.929 436.392 294.631C429.803 288.334 423.238 281.859 417.468 276.212C414.595 273.3 412.03 270.79 409.798 268.505C407.566 266.22 405.666 264.16 404.407 262.727C398.731 256.369 393.28 249.678 387.828 242.987C377.126 229.451 366.897 215.072 356.397 201.381C351.146 194.536 345.695 187.845 340.042 181.309L340.065 181.131ZM350.477 255.993C349.054 255.805 347.833 255.464 346.967 255.169C347.856 255.286 349.279 255.473 350.477 255.993ZM303.926 304.533C349.416 295.676 369.483 302.661 400.227 337.117C342.114 360.785 307.258 369.955 281.656 457.274C279.971 463.207 280.129 473.002 277.527 476.28C274.924 479.558 248.211 481.835 241.032 484.149C211.534 493.843 204.316 515.701 191.464 470.385C168.979 391.039 227.582 319.648 303.903 304.711L303.926 304.533ZM95.8954 522.974C98.4838 518.427 101.25 513.904 104.325 509.783C108.346 503.977 127.086 482.549 140.232 476.134C144.674 474.003 148.549 473.427 150.958 475.735C151.445 476.161 152.142 481.864 153.466 486.926C153.967 488.621 154.491 490.138 155.061 491.299C161.743 503.763 170.129 514.279 175.341 526.912C165.578 536.488 156.99 546.762 149.375 557.888C134.168 579.961 123.35 604.423 116.838 630.537C113.505 643.493 111.37 656.969 110.148 670.384C103.535 671.143 98.401 670.287 94.3202 668.302C81.8768 662.501 78.5554 646.497 75.9688 630.408C69.8411 594.485 77.73 555.157 95.872 523.152L95.8954 522.974ZM70.8233 882.607C49.2134 859.852 42.0934 825.97 47.0193 794.036C47.0661 793.68 47.113 793.324 47.1598 792.968C48.4147 784.807 50.7132 776.964 53.5217 769.369C54.3362 767.304 55.1273 765.417 55.9183 763.53C58.2447 758.225 60.9033 753.144 63.8707 748.466C67.3109 742.945 71.0834 737.649 75.3425 732.779C81.2819 726.139 88.1712 720.529 95.8092 716.104C103.447 711.679 111.857 708.26 120.946 706.56C122.143 713.958 124.3 720.939 127.262 727.303C130.378 733.867 134.098 739.968 138.6 745.629C147.402 757.105 158.371 767.237 169.124 776.255C158.977 790.124 149.803 804.846 142.16 820.313C134.291 836.112 128.155 852.5 123.904 869.68C121.231 880.37 119.246 891.332 118.327 902.434C112.567 902.219 107.718 901.943 103.474 901.203L103.296 901.18C99.0277 900.618 95.1621 899.748 91.7459 898.212C84.6889 895.473 78.8019 890.716 71.0012 882.63L70.8233 882.607ZM109.822 1151.29C111.46 1152.6 111.582 1154.42 111.549 1156.05C111.759 1154.45 111.282 1152.57 109.822 1151.29ZM83.898 1063.71C80.9083 1054.81 78.878 1045.49 77.7603 1036.11C77.1242 1031.32 76.8438 1026.58 76.7412 1021.86C76.3544 1002.8 79.9736 983.549 87.6032 966.814C88.0994 965.793 88.8436 964.262 89.9669 962.6C90.9124 960.914 92.2604 958.919 93.6318 956.747C95.0031 954.574 96.7302 952.448 98.4807 950.144C107.186 938.981 118.784 927.836 125.396 933.955C126.037 934.583 126.916 943.025 128.362 949.913C128.792 952.142 129.424 954.216 130.102 955.934C134.814 966.872 140.579 976.681 147.172 985.695C151.14 991.285 155.511 996.567 160.083 1001.69C166.269 1008.3 172.881 1014.42 179.896 1020.23C186.911 1026.04 194.529 1031.39 202.372 1036.4C200.814 1040 199.054 1043.75 197.294 1047.5C193.797 1054.82 189.922 1062.28 186.579 1069.8C183.509 1076.64 180.794 1083.52 178.767 1090.68C178.626 1091.74 178.154 1092.59 177.835 1093.63C174.891 1105.01 173.678 1116.98 176.377 1129.46C171.056 1130.03 165.983 1130.08 161.135 1129.81C122.015 1127.38 95.3234 1099.25 83.5189 1063.84L83.898 1063.71ZM231.993 1296.61C209.989 1293.36 188.055 1282.69 172.098 1266.47C162.528 1256.7 155.373 1245.08 151.677 1231.92C150.306 1227.22 148.978 1219.44 148.431 1211.22C147.706 1202.98 147.787 1194.12 148.901 1187.03C149.711 1182.25 151.115 1178.45 153.245 1176.01C153.872 1175.37 155.791 1174.54 158.599 1173.82C159.914 1173.45 161.585 1173.13 163.101 1172.61C166.466 1171.78 169.985 1171.16 173.304 1170.69C178.292 1169.9 182.298 1169.7 183.117 1170.35C184.601 1171.45 187.68 1176.93 191.615 1184.14C195.574 1191.18 200.234 1199.76 204.703 1207.04C207.697 1211.78 210.739 1216.16 213.28 1218.85C220.594 1226.51 229.818 1234.78 240.019 1239.75C243.436 1241.28 246.899 1242.46 250.408 1243.29L232.124 1296.99L231.993 1296.61ZM237.395 1338.05C238.757 1337.33 240.25 1336.98 241.579 1337.88C240.25 1336.98 238.734 1337.51 237.395 1338.05ZM222.01 1142.89C216.41 1118.08 219.814 1090.83 235.99 1066.89C238.663 1063.08 240.638 1060.44 242.566 1058.16C245.122 1055.24 247.181 1053.34 249.278 1052.53C250.438 1051.96 251.552 1051.74 252.643 1051.71C257.206 1051.4 262.129 1053.86 272.462 1052.32C277.984 1051.6 283.043 1050.28 288.257 1049.15C298.885 1046.75 309.205 1043.94 319.084 1040.36C333.892 1035.06 348.26 1028.99 363.718 1022.88C362.926 1031.64 368.228 1040.85 375.378 1049.76C380.212 1055.64 385.781 1061.44 390.863 1066.82C395.968 1072.01 400.741 1076.99 404.007 1081.04C405.552 1083.05 406.763 1084.84 407.264 1086.53C408.205 1089.01 408.944 1091.64 409.505 1094.25C410.628 1099.47 410.969 1105.12 410.575 1110.86C410.163 1119.5 408.281 1128.3 405.285 1137.32C403.244 1143.2 400.847 1149.04 397.917 1154.81C394.987 1160.58 391.725 1166.13 388.308 1171.47C382.916 1179.45 376.906 1186.62 370.658 1192.86C364.232 1199.07 357.591 1204.17 350.782 1207.8C290.633 1240.07 234.533 1197.57 221.986 1143.07L222.01 1142.89ZM439.322 1365.35C434.534 1372.86 428.772 1379.53 422.44 1385.03C412.84 1393.36 401.875 1399.7 390.194 1403.23C382.457 1405.65 374.328 1406.94 366.185 1406.95C353.882 1406.96 341.396 1404.23 329.51 1398.32C317.623 1392.42 306.336 1383.33 296.228 1370.78C285.681 1357.44 280.487 1341.91 279.015 1325.61C278.267 1317.55 278.632 1309.27 279.531 1301.06C280.609 1292.88 282.243 1284.58 284.541 1276.74C286.638 1269.05 288.894 1264.28 291.45 1261.36C292.077 1260.72 292.704 1260.07 293.331 1259.43C293.935 1258.97 294.717 1258.53 295.297 1258.24C298.756 1256.71 302.846 1257.25 307.802 1258.08C312.758 1258.91 318.579 1260.04 325.702 1259.53C341.595 1258.36 357.564 1252.5 372.348 1247.38C372.624 1249.41 373.101 1251.29 373.733 1253.36C377.204 1266.85 386.268 1279.08 397.415 1289.24C405 1296.21 413.414 1302.39 421.103 1307.2C423.097 1308.55 426.157 1310.04 429.751 1311.6C434.875 1313.9 440.865 1316.5 445.611 1318.93C448.826 1320.62 451.507 1322.24 452.92 1323.88C453.716 1324.71 454.156 1325.49 454.24 1326.22C451.562 1341.07 446.38 1354.33 439.097 1365.68L439.322 1365.35ZM423.18 1258.42C420.841 1255.58 418.702 1252.58 416.765 1249.43C414.079 1245.09 412.057 1241.21 410.499 1237.92C405.17 1226.18 406.476 1220.38 410.674 1214.6C412.448 1212.11 414.732 1209.88 417.264 1207.14C418.116 1206.16 418.968 1205.19 419.82 1204.22C421.524 1202.27 423.452 1199.99 425.249 1197.33C426.148 1196 427.046 1194.67 427.969 1193.16C431.952 1186.26 435.556 1179.5 438.449 1172.64C441.589 1165.27 443.996 1157.98 446.069 1150.47C449.604 1137.36 451.786 1123.53 452.685 1108.44C452.709 1108.26 452.732 1108.08 452.779 1107.73C458.98 1108.72 464.53 1110.54 470.08 1112.36C472.856 1113.27 475.654 1114 478.63 1114.75C481.607 1115.5 484.607 1116.08 487.831 1116.32C489.431 1116.53 491.435 1116.43 493.793 1116.38C496.152 1116.33 498.712 1116.13 501.473 1115.76C506.972 1115.22 513.229 1114.42 519.107 1113.74C528.125 1112.57 536.563 1111.69 541.589 1111.99C543.19 1112.2 544.613 1112.39 545.324 1112.48C546.166 1112.96 547.687 1115.15 549.755 1118.68C551.824 1122.21 554.308 1126.7 557.102 1131.59C559.717 1136.46 562.689 1141.38 565.351 1145.89C566.694 1148.06 568.061 1150.05 569.273 1151.84C570.484 1153.63 571.743 1155.06 572.848 1156.29C574.284 1157.75 576.077 1159.25 578.047 1160.78C582.96 1164.68 589.142 1168.57 594.102 1172.12C597.402 1174.55 600.167 1176.9 601.178 1178.84C604.233 1184.5 604.589 1191.42 603.249 1198.85C601.91 1206.27 598.676 1214.36 594.576 1222.14C590.475 1229.93 585.509 1237.42 580.305 1243.98C575.1 1250.53 570.036 1256.02 565.763 1259.62C547.664 1274.8 522.86 1284.57 498.019 1286.37C469.705 1288.43 441.28 1280.35 422.871 1258.02L423.18 1258.42ZM614.578 1391.85C610.697 1396.59 606.331 1400.9 601.833 1404.84C587.961 1416.77 571.061 1425.59 553.3 1429.95C541.334 1432.9 528.913 1433.8 516.619 1432.36C516.085 1432.29 515.73 1432.24 515.196 1432.17C509.506 1431.42 503.684 1430.29 498.11 1428.66C489.074 1425.84 482.55 1423.17 478.029 1420.4C475.016 1418.56 472.891 1416.83 471.525 1414.84C469.541 1412.04 469.003 1409.26 469.602 1406.08C469.766 1404.83 470.309 1403.46 470.852 1402.08C471.643 1400.19 472.635 1398.15 474.007 1395.98C474.704 1394.8 475.425 1393.45 476.3 1392.3C477.896 1389.79 479.539 1386.93 481.182 1384.07C482.825 1381.21 484.515 1377.99 485.849 1374.73C487.454 1370.78 490.165 1361.18 493.184 1351.98C494.092 1349.21 495 1346.43 495.707 1343.81C497.842 1337.21 499.99 1331.88 501.399 1330.8C501.6 1330.64 502.358 1330.38 503.673 1330.01C508.934 1328.53 521.968 1325.72 532.998 1323.01C539.527 1321.52 545.522 1319.95 548.377 1318.88C549.893 1318.35 551.835 1317.34 553.778 1316.33C557.686 1314.13 561.865 1311.24 564.636 1309.43C566.021 1308.53 567.004 1307.94 567.36 1307.98C567.715 1308.03 568.071 1308.08 568.38 1308.48C572.9 1311.25 582.558 1331.34 594.144 1349.16C598.351 1355.68 602.805 1361.7 607.223 1366.63C610.227 1369.92 613.325 1372.5 616.161 1374.32C619.175 1376.16 622.127 1377.1 625.043 1376.94C622.005 1382.15 618.434 1387.29 614.578 1391.85ZM774.577 1244.2C772.648 1253.36 769.629 1262.56 765.566 1271.43C761.503 1280.31 756.706 1289.27 750.911 1297.56C733.907 1322.3 710.197 1341.62 684.85 1345.89C668.012 1348.74 650.439 1344.8 633.597 1331.18C631.14 1329.23 629.24 1327.17 627.341 1325.11C626.723 1324.3 625.726 1323.63 625.085 1323C622.567 1320.13 620.429 1317.14 618.67 1314.01C616.91 1310.88 615.329 1307.78 614.327 1304.39C612.124 1297.76 611.034 1290.92 611.236 1283.89C611.437 1276.86 612.575 1269.58 614.804 1262.27C615.829 1258.61 617.21 1254.99 618.792 1251.21C622.995 1241.27 627.737 1234.11 632.955 1228.82C636.493 1225.31 640.116 1222.52 644 1220.5C647.885 1218.48 651.877 1217.01 656.178 1215.95C660.479 1214.89 664.911 1214.2 669.497 1213.72C674.083 1213.24 679.002 1212.98 683.921 1212.72C693.224 1212.14 703.239 1211.64 713.821 1209.6C717.34 1208.97 720.705 1208.15 724.271 1207.17C728.774 1205.95 734.09 1202.67 739.159 1199.9C744.227 1197.13 748.94 1194.31 751.879 1193.97C752.792 1193.91 753.835 1194.23 755.08 1194.39C757.5 1195.25 760.181 1196.87 762.947 1199.23C764.252 1200.3 765.712 1201.58 766.995 1202.84C769.559 1205.35 772.076 1208.21 773.705 1210.96C775.534 1213.55 776.653 1216.05 776.774 1217.88C777.298 1226.28 776.483 1235.22 774.577 1244.2ZM807.656 952.959C803.318 946.052 798.021 939.563 790.533 934.595C790.445 931.144 798.064 922.734 806.489 913.706C810.701 909.192 815.269 904.725 819.056 900.698C822.842 896.671 826.226 892.953 828 890.471C834.67 881.031 840.473 871.296 845.032 861.397C852.049 846.572 856.777 831.265 859.595 815.345C862.414 799.424 863.525 782.736 862.904 765.458C875.628 769.124 885.816 772.818 894.595 777.593C900.515 780.725 905.63 784.476 910.473 788.914C917.75 795.483 924.235 803.939 931.081 815.158C946.223 840.32 951.645 871.987 948.067 901.926C947.411 906.908 946.755 911.89 945.566 916.802C944.377 921.714 943.034 926.425 941.512 931.112C928.654 968.338 899.874 997.314 856.281 998.637C848.47 998.876 842.316 997.524 837.239 994.864C835.044 993.67 833.05 992.322 831.258 990.819C828.979 988.89 826.747 986.605 824.894 984.189C823.813 982.78 822.755 981.192 821.698 979.605C816.611 971.514 812.803 961.962 807.253 953.268L807.656 952.959ZM841.193 1281.02C833.447 1291.77 823.506 1301.32 812.732 1308.96C805.557 1313.99 797.741 1318.39 790.089 1321.54C791.367 1320.08 792.762 1317.73 794.026 1315C797.298 1308.01 800.659 1297.59 803.865 1286.97C805.162 1282.62 806.257 1278.42 807.531 1274.24C808.626 1270.04 809.876 1266.04 810.901 1262.38C811.926 1258.71 812.905 1255.4 813.813 1252.62C814.721 1249.85 815.559 1247.6 816.303 1246.07C816.575 1245.38 817.024 1244.72 817.249 1244.39C818.728 1242.77 821.714 1242.08 825.163 1241.99C828.434 1241.87 832.168 1242.37 836.081 1242.88C844.261 1243.96 853.012 1246.2 857.73 1246.09C855 1258.58 849.093 1270.48 841.347 1281.23L841.193 1281.02ZM954.719 1098.84C953.853 1105.42 952.795 1110.71 951.994 1114.05C950.393 1120.72 947.88 1127.44 944.631 1134.26C941.902 1139.87 938.485 1145.21 934.891 1150.53C920.831 1170.77 900.448 1188.18 878.237 1196.12C871.212 1198.63 864.126 1200.23 857.004 1200.74C846.23 1201.5 835.429 1199.71 825.251 1194.57C821.858 1192.86 818.512 1190.79 815.213 1188.37C809.434 1184.17 805.409 1180.38 802.761 1177.13C801.062 1174.92 799.874 1172.95 799.219 1171.06C798.98 1170.12 798.741 1169.18 798.68 1168.27C798.62 1167.36 798.559 1166.44 798.676 1165.55C798.793 1164.66 798.91 1163.77 799.383 1162.93C800.563 1159.47 803.165 1156.19 806.039 1152.22C808.889 1148.43 812.343 1144.18 815.049 1138.75C817.908 1133.51 820.034 1128.36 822.337 1123.23C826.919 1113.16 830.945 1103.19 833.903 1093.08C836.178 1085.41 837.943 1077.5 839.376 1069.36C840.809 1061.22 841.909 1052.86 842.701 1044.09C851.766 1042.57 860.962 1041.43 870.228 1039.75C879.317 1038.05 888.452 1036 897.171 1032.98C900.583 1031.8 904.87 1029.47 909.382 1026.8C911.726 1025.48 914.071 1024.16 916.439 1022.66C920.169 1020.44 924.077 1018.24 927.938 1016.39C936.086 1012.22 943.49 1009.57 947.926 1011.6C948.46 1011.67 948.745 1012.25 949.232 1012.68C950.383 1013.55 951.511 1014.61 952.391 1016.17C953.603 1017.96 954.567 1020.26 955.484 1022.91C956.616 1026.68 957.322 1030.94 957.958 1035.73C958.417 1040.5 958.804 1045.8 958.813 1051.23C958.822 1056.66 958.63 1062.25 958.438 1067.83C958.048 1076.29 957.149 1084.5 956.367 1091.82C956.039 1094.31 955.735 1096.62 955.454 1098.75L954.719 1098.84ZM998.194 1119.04C998.194 1119.04 1000.29 1118.23 1002.34 1117.78C1000.29 1118.23 998.774 1118.76 998.194 1119.04ZM1012.36 1115.84C1016.06 1115.24 1019.91 1114.84 1023.01 1114.7C1019.89 1115.02 1016.04 1115.42 1012.36 1115.84ZM1002.59 1080.16C1003.28 1078.98 1003.83 1077.61 1004.06 1075.83C1005.7 1067.53 1002.9 1053.05 998.842 1037.13C995.431 1024.55 991.249 1010.97 987.543 999.257C984.731 990.379 982.158 982.438 980.595 976.44C980.141 974.389 979.641 972.694 979.295 971.2C978.602 968.213 978.682 966.233 979.131 965.568L986.324 964.523L1020.75 960.002L1075.15 935.665C1078.46 950.4 1079.21 965.342 1077.31 979.754C1071.6 1023.17 1044.15 1062.64 1002.43 1079.96L1002.59 1080.16ZM1115.8 687.233L1047.48 635.886C1048.72 609.983 1046.01 585.189 1038.49 561.211C1035.92 553.27 1032.99 545.282 1029.3 537.556L993.09 478.668C1056.31 467.075 1106.73 505.932 1127.53 558.266C1132.15 569.915 1135.43 582.112 1137.03 594.633C1141.06 625.935 1134.72 658.951 1115.63 687.21L1115.8 687.233ZM1135.59 828.313C1135.59 828.313 1131.53 779.447 1130.86 769.404C1130.37 763.546 1126.56 710.008 1141.54 725.375C1149.67 733.685 1146.36 815.248 1135.75 828.514L1135.59 828.313ZM1173.13 593.952C1172.07 588.202 1170.67 582.405 1169.64 576.478C1170.87 582.251 1172.1 588.024 1173.13 593.952ZM1174.32 635.742C1173.55 634.736 1173.02 633.219 1172.88 631.57C1173.02 633.219 1173.39 634.534 1174.32 635.742Z" fill="#FF0038"/>
</svg>
